HIERARCHY
ROOT Hips
{
    OFFSET -0.1800 -22.3300 2.8200
    CHANNELS 6 Xposition Yposition Zposition Zrotation Yrotation Xrotation 
    JOINT LeftUpLeg
    {
        OFFSET -0.6800 6.9500 -9.1400
        CHANNELS 3 Zrotation Yrotation Xrotation
        JOINT LeftLeg
        {
            OFFSET -0.4500 3.4300 -37.5200
            CHANNELS 3 Zrotation Yrotation Xrotation
            JOINT LeftFoot
            {
                OFFSET -4.3700 -1.3600 -39.8000
                CHANNELS 3 Zrotation Yrotation Xrotation
                JOINT LeftToe
                {
                    OFFSET 11.9300 2.6400 -5.5800
                    CHANNELS 3 Zrotation Yrotation Xrotation
                    End Site
                    {
                        OFFSET 0.0000 0.0000 0.0000
                    }
                }
            }
        }
    }
    JOINT RightUpLeg
    {
        OFFSET -0.4300 -6.7700 -9.0500
        CHANNELS 3 Zrotation Yrotation Xrotation
        JOINT RightLeg
        {
            OFFSET -0.8900 -3.8300 -38.2600
            CHANNELS 3 Zrotation Yrotation Xrotation
            JOINT RightFoot
            {
                OFFSET -4.2300 1.5800 -39.8400
                CHANNELS 3 Zrotation Yrotation Xrotation
                JOINT RightToe
                {
                    OFFSET 12.3300 -2.5400 -4.8100
                    CHANNELS 3 Zrotation Yrotation Xrotation
                    End Site
                    {
                        OFFSET 0.0000 0.0000 0.0000
                    }
                }
            }
        }
    }
    JOINT Spine
    {
        OFFSET -2.6700 -0.2500 10.9000
        CHANNELS 3 Zrotation Yrotation Xrotation
        JOINT Spine1
        {
            OFFSET 0.1100 0.5500 13.5200
            CHANNELS 3 Zrotation Yrotation Xrotation
            JOINT Spine2
            {
                OFFSET 2.5400 0.1500 5.2900
                CHANNELS 3 Zrotation Yrotation Xrotation
                JOINT Neck
                {
                    OFFSET -4.2900 -0.2800 21.3900
                    CHANNELS 3 Zrotation Yrotation Xrotation
                    JOINT Head
                    {
                        OFFSET 5.1300 0.5200 6.5000
                        CHANNELS 3 Zrotation Yrotation Xrotation
                        End Site
                        {
                            OFFSET 0.0000 0.0000 0.0000
                        }
                    }
                }
                JOINT LeftShoulder
                {
                    OFFSET -3.4100 7.8800 12.1700
                    CHANNELS 3 Zrotation Yrotation Xrotation
                    JOINT LeftArm
                    {
                        OFFSET -0.8900 9.1000 3.0500
                        CHANNELS 3 Zrotation Yrotation Xrotation
                        JOINT LeftForeArm
                        {
                            OFFSET -2.7500 25.9600 -1.2800
                            CHANNELS 3 Zrotation Yrotation Xrotation
                            JOINT LeftHand
                            {
                                OFFSET -1.4900 8.4000 -0.8200
                                CHANNELS 3 Zrotation Yrotation Xrotation
                                End Site
                                {
                                    OFFSET 0.0000 0.0000 0.0000
                                }
                            }
                        }
                    }
                }
                JOINT RightShoulder
                {
                    OFFSET -3.8600 -8.1800 11.8800
                    CHANNELS 3 Zrotation Yrotation Xrotation
                    JOINT RightArm
                    {
                        OFFSET -0.9100 -9.6000 3.2600
                        CHANNELS 3 Zrotation Yrotation Xrotation
                        JOINT RightForeArm
                        {
                            OFFSET -2.1400 -25.3700 -1.3300
                            CHANNELS 3 Zrotation Yrotation Xrotation
                            JOINT RightHand
                            {
                                OFFSET -1.0300 -8.4600 -0.6100
                                CHANNELS 3 Zrotation Yrotation Xrotation
                                End Site
                                {
                                    OFFSET 0.0000 0.0000 0.0000
                                }
                            }
                        }
                    }
                }
            }
        }
    }
}
MOTION
Frames: 13
Frame Time: 0.016667
-21.600197 -27.793270 95.800203 -3.042221 -9.827768 -126.772274 -1.630724 -9.865189 -7.873655 -7.945627 4.202649 -4.242121 2.313009 -7.993111 14.713791 -14.243861 -3.166747 -17.126464 -5.825737 -16.791098 1.376215 -1.929089 0.357284 7.060943 21.397148 7.053448 2.399269 0.062485 6.673808 0.822824 7.179171 17.481586 -3.378758 13.184764 3.031786 -4.374047 2.131796 1.357504 -0.438246 -1.104763 -8.013771 3.660459 1.182787 -1.719450 -4.564216 11.704300 -15.725667 -31.407592 3.867244 -14.804635 -27.031414 19.580701 -25.010183 -24.913258 23.999100 30.284935 5.004732 11.983089 2.466770 19.114021 51.083553 -1.116300 25.680230 -4.972089 6.120521 20.850994 8.354947 -6.019498 0.704910
-22.107941 -27.806658 95.448405 -2.724769 -10.548406 -126.917706 -1.448452 -12.760156 -7.415238 -7.371007 3.407842 -1.394617 1.764544 -4.610985 16.555510 -12.133641 -1.420669 -16.173425 -5.306261 -18.256389 0.952846 -1.884847 -1.442537 6.080647 18.508754 7.712011 4.340593 -0.986742 7.245290 -2.434683 8.398424 20.370457 -3.548577 14.317243 1.384622 -5.880537 2.164794 2.106652 -1.420088 0.675365 -7.570823 2.697636 1.003604 3.452644 -6.049342 13.892377 -15.194703 -30.830826 7.456527 -16.489615 -25.281846 18.032583 -28.506386 -15.801941 26.127775 30.158641 4.990197 11.977833 2.999599 17.092984 52.675813 -1.040320 27.755042 -7.800787 8.856481 24.088591 5.909291 -3.487408 1.113283
-22.501330 -27.686331 94.984108 -2.471210 -10.779468 -126.459661 -1.448452 -12.760156 -7.415238 -7.371007 3.407842 -1.394617 1.764544 -4.610985 16.555510 -12.133641 -1.420669 -16.173425 -5.306261 -18.256389 0.952846 -1.884847 -1.442537 6.080647 18.508754 7.712011 4.340593 -0.986742 7.245290 -2.434683 8.398424 20.370457 -3.548577 14.317243 1.384622 -5.880537 2.164794 2.106652 -1.420088 0.675365 -7.570823 2.697636 1.003604 3.452644 -6.049342 13.892377 -15.194703 -30.830826 7.456527 -16.489615 -25.281846 18.032583 -28.506386 -15.801941 26.127775 30.158641 4.990197 11.977833 2.999599 17.092984 52.675813 -1.040320 27.755042 -7.800787 8.856481 24.088591 5.909291 -3.487408 1.113283
-22.818476 -27.506155 94.418186 -2.226409 -10.961298 -125.879522 -1.945971 -13.751971 -6.610500 -6.501694 2.064216 0.892517 0.793425 -1.581256 18.333281 -10.947251 -1.938657 -18.886913 -4.802833 -17.322230 0.341544 -2.323678 -3.994666 5.564908 14.822473 8.319885 5.543180 -4.703071 7.189822 -3.887156 10.329560 22.044890 -3.836351 15.154627 0.366176 -7.313390 2.231788 2.500767 -2.243303 1.948492 -5.624215 1.188263 1.012141 7.477176 -7.115110 14.483848 -14.118300 -29.139787 9.401035 -17.633470 -24.064027 15.789167 -31.397385 -9.368587 27.503817 30.689075 3.969168 12.086677 2.878748 14.709321 53.082076 0.108087 28.089685 -9.734767 10.368645 27.703045 2.608790 1.031334 2.404673
-23.121732 -27.262774 93.994892 -1.884114 -10.861054 -125.674229 -1.945971 -13.751971 -6.610500 -6.501694 2.064216 0.892517 0.793425 -1.581256 18.333281 -10.947251 -1.938657 -18.886913 -4.802833 -17.322230 0.341544 -2.323678 -3.994666 5.564908 14.822473 8.319885 5.543180 -4.703071 7.189822 -3.887156 10.329560 22.044890 -3.836351 15.154627 0.366176 -7.313390 2.231788 2.500767 -2.243303 1.948492 -5.624215 1.188263 1.012141 7.477176 -7.115110 14.483848 -14.118300 -29.139787 9.401035 -17.633470 -24.064027 15.789167 -31.397385 -9.368587 27.503817 30.689075 3.969168 12.086677 2.878748 14.709321 53.082076 0.108087 28.089685 -9.734767 10.368645 27.703045 2.608790 1.031334 2.404673
-23.466249 -27.018291 93.790448 -1.518302 -10.939746 -125.266703 -2.790450 -12.760411 -5.246064 -6.042168 0.444937 1.879671 0.661449 -4.740491 19.253524 -9.971892 -4.632243 -22.737338 -4.151254 -16.491356 0.105784 -2.507185 -5.356144 5.898234 10.503879 9.282932 5.276475 -3.880346 4.580397 -5.684757 12.509163 23.001252 -3.652660 15.906022 0.092506 -7.635036 2.380372 2.513919 -2.403438 2.351093 -2.701906 -0.492507 1.305689 9.401082 -7.777883 13.594257 -13.293257 -27.422220 10.621348 -19.315413 -22.887526 12.301700 -31.525357 -4.660580 25.452248 30.928153 2.909966 12.435488 3.132050 13.273430 50.922267 0.584701 26.516579 -9.089372 10.971702 29.987671 -0.613000 4.818428 3.138073
-23.740156 -26.806813 93.716973 -1.425687 -10.515020 -124.844604 -2.790450 -12.760411 -5.246064 -6.042168 0.444937 1.879671 0.661449 -4.740491 19.253524 -9.971892 -4.632243 -22.737338 -4.151254 -16.491356 0.105784 -2.507185 -5.356144 5.898234 10.503879 9.282932 5.276475 -3.880346 4.580397 -5.684757 12.509163 23.001252 -3.652660 15.906022 0.092506 -7.635036 2.380372 2.513919 -2.403438 2.351093 -2.701906 -0.492507 1.305689 9.401082 -7.777883 13.594257 -13.293257 -27.422220 10.621348 -19.315413 -22.887526 12.301700 -31.525357 -4.660580 25.452248 30.928153 2.909966 12.435488 3.132050 13.273430 50.922267 0.584701 26.516579 -9.089372 10.971702 29.987671 -0.613000 4.818428 3.138073
-23.907167 -26.578745 93.673694 -1.475982 -9.934119 -124.496280 -4.132026 -10.659878 -4.757468 -4.769493 -1.499945 2.518469 2.655017 -3.389456 17.645123 -8.098181 -5.807638 -23.747346 -3.743059 -15.833188 -0.287244 -2.859771 -3.758078 4.994558 7.513812 8.019240 3.786766 -1.576236 4.068005 -5.629272 13.529577 24.037871 -3.475096 16.391698 -0.101510 -7.583948 2.843855 2.901799 -2.664111 1.997634 0.325707 -2.473298 1.512010 10.633604 -7.567743 12.363786 -12.233861 -26.409368 10.623417 -20.903909 -21.519968 9.204283 -30.859534 -0.744987 20.658044 31.866865 2.207172 12.682983 3.512353 12.516505 48.164505 0.318625 24.335914 -9.128179 10.974544 32.639072 -3.896170 7.311254 2.632932
-23.955302 -26.309913 93.633103 -1.532234 -9.136004 -124.238316 -4.132026 -10.659878 -4.757468 -4.769493 -1.499945 2.518469 2.655017 -3.389456 17.645123 -8.098181 -5.807638 -23.747346 -3.743059 -15.833188 -0.287244 -2.859771 -3.758078 4.994558 7.513812 8.019240 3.786766 -1.576236 4.068005 -5.629272 13.529577 24.037871 -3.475096 16.391698 -0.101510 -7.583948 2.843855 2.901799 -2.664111 1.997634 0.325707 -2.473298 1.512010 10.633604 -7.567743 12.363786 -12.233861 -26.409368 10.623417 -20.903909 -21.519968 9.204283 -30.859534 -0.744987 20.658044 31.866865 2.207172 12.682983 3.512353 12.516505 48.164505 0.318625 24.335914 -9.128179 10.974544 32.639072 -3.896170 7.311254 2.632932
-23.915403 -26.079053 93.606794 -1.466317 -8.401193 -123.877685 -5.453751 -7.541707 -3.888072 -3.794289 -3.898598 3.374268 3.385326 -1.714877 17.234880 -3.987672 -5.790101 -25.897011 -3.546244 -14.068602 -0.731391 -3.164308 -3.140055 4.458142 5.853938 6.946746 3.468333 1.503970 4.223843 -5.329743 14.235560 24.068676 -3.345090 16.044419 0.194281 -7.822563 3.109266 3.261987 -2.907021 1.754322 3.033998 -3.669841 1.540112 11.539197 -7.042104 10.574773 -11.316386 -25.083415 8.867948 -21.443168 -20.375028 7.404433 -29.492940 -0.182486 18.144181 31.090875 1.430629 12.514676 2.642455 10.940677 46.995505 1.043329 23.331989 -8.350854 11.078554 36.093642 -4.914935 7.548987 2.115502
-23.794128 -25.875652 93.683618 -1.205208 -7.455388 -123.484479 -5.453751 -7.541707 -3.888072 -3.794289 -3.898598 3.374268 3.385326 -1.714877 17.234880 -3.987672 -5.790101 -25.897011 -3.546244 -14.068602 -0.731391 -3.164308 -3.140055 4.458142 5.853938 6.946746 3.468333 1.503970 4.223843 -5.329743 14.235560 24.068676 -3.345090 16.044419 0.194281 -7.822563 3.109266 3.261987 -2.907021 1.754322 3.033998 -3.669841 1.540112 11.539197 -7.042104 10.574773 -11.316386 -25.083415 8.867948 -21.443168 -20.375028 7.404433 -29.492940 -0.182486 18.144181 31.090875 1.430629 12.514676 2.642455 10.940677 46.995505 1.043329 23.331989 -8.350854 11.078554 36.093642 -4.914935 7.548987 2.115502
-23.583257 -25.699160 93.731308 -1.032711 -6.522702 -122.923766 -6.084871 -4.144571 -3.677846 -2.263713 -6.220951 3.606496 3.453025 0.990966 17.087950 -0.284432 -3.567916 -26.845420 -3.035434 -11.908413 -1.016950 -2.891804 -2.245747 4.671771 4.264035 6.175247 2.436760 2.102208 4.314929 -5.837317 14.251891 23.645235 -3.464986 15.727098 0.659386 -8.120009 3.435191 3.490247 -3.059781 1.399287 5.922087 -3.971190 1.756355 11.784471 -6.048289 9.051071 -10.501066 -24.224099 7.272670 -22.284825 -19.776317 6.159322 -26.466497 -2.399816 14.718879 29.016251 0.454294 12.459348 2.042891 9.963541 45.832283 1.400250 22.144567 -6.495540 10.552730 38.754502 -5.565926 6.253136 1.317319
-23.288836 -25.515473 93.810743 -1.019508 -5.359325 -122.101213 -6.084871 -4.144571 -3.677846 -2.263713 -6.220951 3.606496 3.453025 0.990966 17.087950 -0.284432 -3.567916 -26.845420 -3.035434 -11.908413 -1.016950 -2.891804 -2.245747 4.671771 4.264035 6.175247 2.436760 2.102208 4.314929 -5.837317 14.251891 23.645235 -3.464986 15.727098 0.659386 -8.120009 3.435191 3.490247 -3.059781 1.399287 5.922087 -3.971190 1.756355 11.784471 -6.048289 9.051071 -10.501066 -24.224099 7.272670 -22.284825 -19.776317 6.159322 -26.466497 -2.399816 14.718879 29.016251 0.454294 12.459348 2.042891 9.963541 45.832283 1.400250 22.144567 -6.495540 10.552730 38.754502 -5.565926 6.253136 1.317319
